<svg width="973" height="279" viewBox="0 0 973 279" fill="none" xmlns="http://www.w3.org/2000/svg">
<path d="M226.863 99.7786L234.146 130.697L252.627 118.518L208.605 57.2223L104.466 128.61" fill="#6F9935"/>
<path d="M239.471 127.188L231.367 92.7837L117.654 119.569L109.763 124.979L110.294 127.236L226.863 99.7783L234.146 130.697L239.471 127.188Z" fill="#658B30"/>
<path d="M104.466 128.61L226.863 99.7786L244.077 172.86L121.68 201.691L104.466 128.61Z" fill="#79A73A"/>
<path d="M121.89 150.346C128.035 146.89 132.022 140.699 132.497 133.874L204.129 117.001C207.599 122.897 213.93 126.657 220.973 127.006L226.654 151.123C220.507 154.579 216.521 160.77 216.046 167.595L145.26 184.269L144.412 184.469C140.942 178.574 134.612 174.813 127.57 174.463L121.89 150.346Z" fill="#AAC16B"/>
<path d="M177.582 164.789C185.629 162.893 190.671 155.064 188.843 147.303C187.014 139.541 179.008 134.785 170.961 136.681C162.914 138.576 157.872 146.405 159.7 154.167C161.529 161.929 169.535 166.684 177.582 164.789Z" fill="#79A73A"/>
<path d="M224.843 100.254L213.895 84.7357L213.402 84.0537C206.686 86.2548 199.33 85.054 193.831 80.8582L193.122 81.3458L136.522 121.058L224.843 100.254Z" fill="#AAC16B"/>
<path d="M149.253 112.126L136.522 121.059L224.843 100.254L221.255 95.1659L149.253 112.126Z" fill="#89B140"/>
<path d="M142.877 161.096C144.487 160.717 145.495 159.151 145.129 157.599C144.764 156.047 143.162 155.096 141.553 155.475C139.943 155.854 138.935 157.42 139.301 158.972C139.666 160.524 141.268 161.475 142.877 161.096Z" fill="#79A73A"/>
<path d="M206.99 145.994C208.6 145.615 209.608 144.049 209.242 142.497C208.876 140.945 207.275 139.994 205.666 140.373C204.056 140.752 203.048 142.318 203.414 143.87C203.779 145.422 205.381 146.373 206.99 145.994Z" fill="#79A73A"/>
<path d="M157.922 31.312L126.609 20.7369L114.272 57.2677L154.19 94.0047L157.922 31.312Z" fill="#79A73A"/>
<path d="M157.921 31.3119L138.534 88.717L176.896 78.4174L189.233 41.887L157.921 31.3119Z" fill="#658B30"/>
<path d="M77.4893 211.62L83.417 251.913L108.988 210.63L77.4893 211.62Z" fill="#373E9F"/>
<path d="M83.4175 251.913L112.562 223.465L98.5506 207.106L83.4175 251.913Z" fill="#340D66"/>
<path d="M121.632 173.193L72.8325 179.967L77.4891 211.62L95.0251 217.543L121.632 173.193Z" fill="#FFE7B5"/>
<path d="M95.0252 217.543L112.562 223.465L135.456 201.118L111.194 169.668L95.0252 217.543Z" fill="#FFD06A"/>
<path d="M104.144 190.543L135.456 201.118L176.896 78.4175L145.584 67.8428L104.147 121.676L104.144 190.543Z" fill="#FF9A27"/>
<path d="M72.8222 179.966L114.256 57.285L145.563 67.8584L104.129 190.54L72.8222 179.966Z" fill="#FFB820"/>
<path d="M311.6 40.35V72.3H362.3V88.8H311.6V129H292.1V24H368.75V40.35H311.6ZM384.343 48.9H403.093V129H384.343V48.9ZM393.793 35.7C390.393 35.7 387.543 34.65 385.243 32.55C382.943 30.35 381.793 27.65 381.793 24.45C381.793 21.25 382.943 18.6 385.243 16.5C387.543 14.3 390.393 13.2 393.793 13.2C397.193 13.2 400.043 14.25 402.343 16.35C404.643 18.35 405.793 20.9 405.793 24C405.793 27.3 404.643 30.1 402.343 32.4C400.143 34.6 397.293 35.7 393.793 35.7ZM473.152 48C483.252 48 491.352 50.95 497.452 56.85C503.552 62.75 506.602 71.5 506.602 83.1V129H487.852V85.5C487.852 78.5 486.202 73.25 482.902 69.75C479.602 66.15 474.902 64.35 468.802 64.35C461.902 64.35 456.452 66.45 452.452 70.65C448.452 74.75 446.452 80.7 446.452 88.5V129H427.702V48.9H445.552V59.25C448.652 55.55 452.552 52.75 457.252 50.85C461.952 48.95 467.252 48 473.152 48ZM560.988 48C572.788 48 581.788 50.85 587.988 56.55C594.288 62.15 597.438 70.65 597.438 82.05V129H579.738V119.25C577.438 122.75 574.138 125.45 569.838 127.35C565.638 129.15 560.538 130.05 554.538 130.05C548.538 130.05 543.288 129.05 538.788 127.05C534.288 124.95 530.788 122.1 528.288 118.5C525.888 114.8 524.688 110.65 524.688 106.05C524.688 98.85 527.338 93.1 532.638 88.8C538.038 84.4 546.488 82.2 557.988 82.2H578.688V81C578.688 75.4 576.988 71.1 573.588 68.1C570.288 65.1 565.338 63.6 558.738 63.6C554.238 63.6 549.788 64.3 545.388 65.7C541.088 67.1 537.438 69.05 534.438 71.55L527.088 57.9C531.288 54.7 536.338 52.25 542.238 50.55C548.138 48.85 554.388 48 560.988 48ZM558.438 116.4C563.138 116.4 567.288 115.35 570.888 113.25C574.588 111.05 577.188 107.95 578.688 103.95V94.65H559.338C548.538 94.65 543.138 98.2 543.138 105.3C543.138 108.7 544.488 111.4 547.188 113.4C549.888 115.4 553.638 116.4 558.438 116.4ZM666.951 48C677.051 48 685.151 50.95 691.251 56.85C697.351 62.75 700.401 71.5 700.401 83.1V129H681.651V85.5C681.651 78.5 680.001 73.25 676.701 69.75C673.401 66.15 668.701 64.35 662.601 64.35C655.701 64.35 650.251 66.45 646.251 70.65C642.251 74.75 640.251 80.7 640.251 88.5V129H621.501V48.9H639.351V59.25C642.451 55.55 646.351 52.75 651.051 50.85C655.751 48.95 661.051 48 666.951 48ZM761.669 130.05C753.369 130.05 745.919 128.3 739.319 124.8C732.719 121.3 727.569 116.45 723.869 110.25C720.169 103.95 718.319 96.85 718.319 88.95C718.319 81.05 720.169 74 723.869 67.8C727.569 61.6 732.669 56.75 739.169 53.25C745.769 49.75 753.269 48 761.669 48C769.569 48 776.469 49.6 782.369 52.8C788.369 56 792.869 60.6 795.869 66.6L781.469 75C779.169 71.3 776.269 68.55 772.769 66.75C769.369 64.85 765.619 63.9 761.519 63.9C754.519 63.9 748.719 66.2 744.119 70.8C739.519 75.3 737.219 81.35 737.219 88.95C737.219 96.55 739.469 102.65 743.969 107.25C748.569 111.75 754.419 114 761.519 114C765.619 114 769.369 113.1 772.769 111.3C776.269 109.4 779.169 106.6 781.469 102.9L795.869 111.3C792.769 117.3 788.219 121.95 782.219 125.25C776.319 128.45 769.469 130.05 761.669 130.05ZM812.077 48.9H830.827V129H812.077V48.9ZM821.527 35.7C818.127 35.7 815.277 34.65 812.977 32.55C810.677 30.35 809.527 27.65 809.527 24.45C809.527 21.25 810.677 18.6 812.977 16.5C815.277 14.3 818.127 13.2 821.527 13.2C824.927 13.2 827.777 14.25 830.077 16.35C832.377 18.35 833.527 20.9 833.527 24C833.527 27.3 832.377 30.1 830.077 32.4C827.877 34.6 825.027 35.7 821.527 35.7ZM886.037 48C897.837 48 906.837 50.85 913.037 56.55C919.337 62.15 922.487 70.65 922.487 82.05V129H904.787V119.25C902.487 122.75 899.187 125.45 894.887 127.35C890.687 129.15 885.587 130.05 879.587 130.05C873.587 130.05 868.337 129.05 863.837 127.05C859.337 124.95 855.837 122.1 853.337 118.5C850.937 114.8 849.737 110.65 849.737 106.05C849.737 98.85 852.387 93.1 857.687 88.8C863.087 84.4 871.537 82.2 883.037 82.2H903.737V81C903.737 75.4 902.037 71.1 898.637 68.1C895.337 65.1 890.387 63.6 883.787 63.6C879.287 63.6 874.837 64.3 870.437 65.7C866.137 67.1 862.487 69.05 859.487 71.55L852.137 57.9C856.337 54.7 861.387 52.25 867.287 50.55C873.187 48.85 879.437 48 886.037 48ZM883.487 116.4C888.187 116.4 892.337 115.35 895.937 113.25C899.637 111.05 902.237 107.95 903.737 103.95V94.65H884.387C873.587 94.65 868.187 98.2 868.187 105.3C868.187 108.7 869.537 111.4 872.237 113.4C874.937 115.4 878.687 116.4 883.487 116.4ZM388.55 256L388.4 186.4L353.9 244H345.2L310.7 187.3V256H292.1V151H308.15L349.85 220.6L390.8 151H406.85L407 256H388.55ZM508.862 216.4C508.862 217.7 508.762 219.55 508.562 221.95H445.712C446.812 227.85 449.662 232.55 454.262 236.05C458.962 239.45 464.762 241.15 471.662 241.15C480.462 241.15 487.712 238.25 493.412 232.45L503.462 244C499.862 248.3 495.312 251.55 489.812 253.75C484.312 255.95 478.112 257.05 471.212 257.05C462.412 257.05 454.662 255.3 447.962 251.8C441.262 248.3 436.062 243.45 432.362 237.25C428.762 230.95 426.962 223.85 426.962 215.95C426.962 208.15 428.712 201.15 432.212 194.95C435.812 188.65 440.762 183.75 447.062 180.25C453.362 176.75 460.462 175 468.362 175C476.162 175 483.112 176.75 489.212 180.25C495.412 183.65 500.212 188.5 503.612 194.8C507.112 201 508.862 208.2 508.862 216.4ZM468.362 190C462.362 190 457.262 191.8 453.062 195.4C448.962 198.9 446.462 203.6 445.562 209.5H491.012C490.212 203.7 487.762 199 483.662 195.4C479.562 191.8 474.462 190 468.362 190ZM572.322 175C582.422 175 590.522 177.95 596.622 183.85C602.722 189.75 605.772 198.5 605.772 210.1V256H587.022V212.5C587.022 205.5 585.372 200.25 582.072 196.75C578.772 193.15 574.072 191.35 567.972 191.35C561.072 191.35 555.622 193.45 551.622 197.65C547.622 201.75 545.622 207.7 545.622 215.5V256H526.872V175.9H544.722V186.25C547.822 182.55 551.722 179.75 556.422 177.85C561.122 175.95 566.422 175 572.322 175ZM677.708 251.65C675.508 253.45 672.808 254.8 669.608 255.7C666.508 256.6 663.208 257.05 659.708 257.05C650.908 257.05 644.108 254.75 639.308 250.15C634.508 245.55 632.108 238.85 632.108 230.05V191.5H618.908V176.5H632.108V158.2H650.858V176.5H672.308V191.5H650.858V229.6C650.858 233.5 651.808 236.5 653.708 238.6C655.608 240.6 658.358 241.6 661.958 241.6C666.158 241.6 669.658 240.5 672.458 238.3L677.708 251.65ZM765.795 216.4C765.795 217.7 765.695 219.55 765.495 221.95H702.645C703.745 227.85 706.595 232.55 711.195 236.05C715.895 239.45 721.695 241.15 728.595 241.15C737.395 241.15 744.645 238.25 750.345 232.45L760.395 244C756.795 248.3 752.245 251.55 746.745 253.75C741.245 255.95 735.045 257.05 728.145 257.05C719.345 257.05 711.595 255.3 704.895 251.8C698.195 248.3 692.995 243.45 689.295 237.25C685.695 230.95 683.895 223.85 683.895 215.95C683.895 208.15 685.645 201.15 689.145 194.95C692.745 188.65 697.695 183.75 703.995 180.25C710.295 176.75 717.395 175 725.295 175C733.095 175 740.045 176.75 746.145 180.25C752.345 183.65 757.145 188.5 760.545 194.8C764.045 201 765.795 208.2 765.795 216.4ZM725.295 190C719.295 190 714.195 191.8 709.995 195.4C705.895 198.9 703.395 203.6 702.495 209.5H747.945C747.145 203.7 744.695 199 740.595 195.4C736.495 191.8 731.395 190 725.295 190Z" fill="#F6F5FF"/>
<path d="M278 144H934.187V151.5H278V144ZM278 271H771.495V278.5H278V271Z" fill="#F6F5FF"/>
<rect x="255" y="5.70825" width="5" height="250" fill="#F6F5FF"/>
</svg>
