<svg width="977" height="257" viewBox="0 0 977 257" fill="none" xmlns="http://www.w3.org/2000/svg">
<path d="M224.663 98.5703L231.857 129.115L250.115 117.083L206.625 56.5293L103.747 127.052" fill="#6F9935"/>
<path d="M237.117 125.648L229.111 91.6604L116.775 118.121L108.979 123.466L109.504 125.696L224.662 98.5702L231.856 129.115L237.117 125.648Z" fill="#658B30"/>
<path d="M103.746 127.053L224.661 98.5706L241.667 170.767L120.752 199.249L103.746 127.053Z" fill="#79A73A"/>
<path d="M120.959 148.526C127.031 145.111 130.969 138.995 131.438 132.253L202.202 115.584C205.631 121.409 211.885 125.124 218.843 125.469L224.455 149.294C218.383 152.708 214.444 158.824 213.976 165.566L144.047 182.038L143.209 182.236C139.781 176.412 133.527 172.697 126.571 172.35L120.959 148.526Z" fill="#AAC16B"/>
<path d="M175.977 162.794C183.927 160.921 188.908 153.187 187.102 145.519C185.295 137.851 177.386 133.153 169.437 135.026C161.487 136.898 156.506 144.633 158.312 152.3C160.118 159.968 168.027 164.666 175.977 162.794Z" fill="#79A73A"/>
<path d="M222.666 99.0402L211.851 83.7098L211.364 83.0361C204.729 85.2104 197.462 84.0242 192.03 79.8792L191.329 80.3609L135.415 119.593L222.666 99.0402Z" fill="#AAC16B"/>
<path d="M147.991 110.769L135.415 119.593L222.666 99.0404L219.121 94.0137L147.991 110.769Z" fill="#89B140"/>
<path d="M141.693 159.146C143.283 158.771 144.279 157.224 143.917 155.691C143.556 154.157 141.974 153.218 140.384 153.592C138.794 153.967 137.798 155.514 138.16 157.047C138.521 158.581 140.103 159.52 141.693 159.146Z" fill="#79A73A"/>
<path d="M205.029 144.227C206.619 143.852 207.615 142.305 207.254 140.772C206.893 139.238 205.311 138.299 203.721 138.673C202.131 139.048 201.135 140.594 201.496 142.128C201.857 143.662 203.439 144.601 205.029 144.227Z" fill="#79A73A"/>
<path d="M156.555 30.933L125.622 20.4859L113.434 56.5744L152.869 92.8666L156.555 30.933Z" fill="#6F9935"/>
<path d="M156.555 30.9329L137.402 87.6429L175.3 77.468L187.488 41.3799L156.555 30.9329Z" fill="#658B30"/>
<path d="M77.0966 209.058L82.9525 248.863L108.214 208.08L77.0966 209.058Z" fill="#373E9F"/>
<path d="M82.953 248.863L111.744 220.76L97.9028 204.598L82.953 248.863Z" fill="#340D66"/>
<path d="M120.704 171.096L72.4961 177.789L77.0963 209.058L94.42 214.909L120.704 171.096Z" fill="#FFE7B5"/>
<path d="M94.4201 214.909L111.744 220.76L134.361 198.683L110.393 167.614L94.4201 214.909Z" fill="#FFD06A"/>
<path d="M103.429 188.236L134.361 198.683L175.3 77.4681L144.367 67.0214L103.432 120.203L103.429 188.236Z" fill="#FF9A27"/>
<path d="M72.4859 177.787L113.418 56.5915L144.346 67.0368L103.414 188.233L72.4859 177.787Z" fill="#FFB820"/>
<path d="M308.6 39.35V71.3H359.3V87.8H308.6V128H289.1V23H365.75V39.35H308.6ZM381.343 47.9H400.093V128H381.343V47.9ZM390.793 34.7C387.393 34.7 384.543 33.65 382.243 31.55C379.943 29.35 378.793 26.65 378.793 23.45C378.793 20.25 379.943 17.6 382.243 15.5C384.543 13.3 387.393 12.2 390.793 12.2C394.193 12.2 397.043 13.25 399.343 15.35C401.643 17.35 402.793 19.9 402.793 23C402.793 26.3 401.643 29.1 399.343 31.4C397.143 33.6 394.293 34.7 390.793 34.7ZM470.152 47C480.252 47 488.352 49.95 494.452 55.85C500.552 61.75 503.602 70.5 503.602 82.1V128H484.852V84.5C484.852 77.5 483.202 72.25 479.902 68.75C476.602 65.15 471.902 63.35 465.802 63.35C458.902 63.35 453.452 65.45 449.452 69.65C445.452 73.75 443.452 79.7 443.452 87.5V128H424.702V47.9H442.552V58.25C445.652 54.55 449.552 51.75 454.252 49.85C458.952 47.95 464.252 47 470.152 47ZM557.988 47C569.788 47 578.788 49.85 584.988 55.55C591.288 61.15 594.438 69.65 594.438 81.05V128H576.738V118.25C574.438 121.75 571.138 124.45 566.838 126.35C562.638 128.15 557.538 129.05 551.538 129.05C545.538 129.05 540.288 128.05 535.788 126.05C531.288 123.95 527.788 121.1 525.288 117.5C522.888 113.8 521.688 109.65 521.688 105.05C521.688 97.85 524.338 92.1 529.638 87.8C535.038 83.4 543.488 81.2 554.988 81.2H575.688V80C575.688 74.4 573.988 70.1 570.588 67.1C567.288 64.1 562.338 62.6 555.738 62.6C551.238 62.6 546.788 63.3 542.388 64.7C538.088 66.1 534.438 68.05 531.438 70.55L524.088 56.9C528.288 53.7 533.338 51.25 539.238 49.55C545.138 47.85 551.388 47 557.988 47ZM555.438 115.4C560.138 115.4 564.288 114.35 567.888 112.25C571.588 110.05 574.188 106.95 575.688 102.95V93.65H556.338C545.538 93.65 540.138 97.2 540.138 104.3C540.138 107.7 541.488 110.4 544.188 112.4C546.888 114.4 550.638 115.4 555.438 115.4ZM663.951 47C674.051 47 682.151 49.95 688.251 55.85C694.351 61.75 697.401 70.5 697.401 82.1V128H678.651V84.5C678.651 77.5 677.001 72.25 673.701 68.75C670.401 65.15 665.701 63.35 659.601 63.35C652.701 63.35 647.251 65.45 643.251 69.65C639.251 73.75 637.251 79.7 637.251 87.5V128H618.501V47.9H636.351V58.25C639.451 54.55 643.351 51.75 648.051 49.85C652.751 47.95 658.051 47 663.951 47ZM758.669 129.05C750.369 129.05 742.919 127.3 736.319 123.8C729.719 120.3 724.569 115.45 720.869 109.25C717.169 102.95 715.319 95.85 715.319 87.95C715.319 80.05 717.169 73 720.869 66.8C724.569 60.6 729.669 55.75 736.169 52.25C742.769 48.75 750.269 47 758.669 47C766.569 47 773.469 48.6 779.369 51.8C785.369 55 789.869 59.6 792.869 65.6L778.469 74C776.169 70.3 773.269 67.55 769.769 65.75C766.369 63.85 762.619 62.9 758.519 62.9C751.519 62.9 745.719 65.2 741.119 69.8C736.519 74.3 734.219 80.35 734.219 87.95C734.219 95.55 736.469 101.65 740.969 106.25C745.569 110.75 751.419 113 758.519 113C762.619 113 766.369 112.1 769.769 110.3C773.269 108.4 776.169 105.6 778.469 101.9L792.869 110.3C789.769 116.3 785.219 120.95 779.219 124.25C773.319 127.45 766.469 129.05 758.669 129.05ZM809.077 47.9H827.827V128H809.077V47.9ZM818.527 34.7C815.127 34.7 812.277 33.65 809.977 31.55C807.677 29.35 806.527 26.65 806.527 23.45C806.527 20.25 807.677 17.6 809.977 15.5C812.277 13.3 815.127 12.2 818.527 12.2C821.927 12.2 824.777 13.25 827.077 15.35C829.377 17.35 830.527 19.9 830.527 23C830.527 26.3 829.377 29.1 827.077 31.4C824.877 33.6 822.027 34.7 818.527 34.7ZM883.037 47C894.837 47 903.837 49.85 910.037 55.55C916.337 61.15 919.487 69.65 919.487 81.05V128H901.787V118.25C899.487 121.75 896.187 124.45 891.887 126.35C887.687 128.15 882.587 129.05 876.587 129.05C870.587 129.05 865.337 128.05 860.837 126.05C856.337 123.95 852.837 121.1 850.337 117.5C847.937 113.8 846.737 109.65 846.737 105.05C846.737 97.85 849.387 92.1 854.687 87.8C860.087 83.4 868.537 81.2 880.037 81.2H900.737V80C900.737 74.4 899.037 70.1 895.637 67.1C892.337 64.1 887.387 62.6 880.787 62.6C876.287 62.6 871.837 63.3 867.437 64.7C863.137 66.1 859.487 68.05 856.487 70.55L849.137 56.9C853.337 53.7 858.387 51.25 864.287 49.55C870.187 47.85 876.437 47 883.037 47ZM880.487 115.4C885.187 115.4 889.337 114.35 892.937 112.25C896.637 110.05 899.237 106.95 900.737 102.95V93.65H881.387C870.587 93.65 865.187 97.2 865.187 104.3C865.187 107.7 866.537 110.4 869.237 112.4C871.937 114.4 875.687 115.4 880.487 115.4ZM385.55 255L385.4 185.4L350.9 243H342.2L307.7 186.3V255H289.1V150H305.15L346.85 219.6L387.8 150H403.85L404 255H385.55ZM505.862 215.4C505.862 216.7 505.762 218.55 505.562 220.95H442.712C443.812 226.85 446.662 231.55 451.262 235.05C455.962 238.45 461.762 240.15 468.662 240.15C477.462 240.15 484.712 237.25 490.412 231.45L500.462 243C496.862 247.3 492.312 250.55 486.812 252.75C481.312 254.95 475.112 256.05 468.212 256.05C459.412 256.05 451.662 254.3 444.962 250.8C438.262 247.3 433.062 242.45 429.362 236.25C425.762 229.95 423.962 222.85 423.962 214.95C423.962 207.15 425.712 200.15 429.212 193.95C432.812 187.65 437.762 182.75 444.062 179.25C450.362 175.75 457.462 174 465.362 174C473.162 174 480.112 175.75 486.212 179.25C492.412 182.65 497.212 187.5 500.612 193.8C504.112 200 505.862 207.2 505.862 215.4ZM465.362 189C459.362 189 454.262 190.8 450.062 194.4C445.962 197.9 443.462 202.6 442.562 208.5H488.012C487.212 202.7 484.762 198 480.662 194.4C476.562 190.8 471.462 189 465.362 189ZM569.322 174C579.422 174 587.522 176.95 593.622 182.85C599.722 188.75 602.772 197.5 602.772 209.1V255H584.022V211.5C584.022 204.5 582.372 199.25 579.072 195.75C575.772 192.15 571.072 190.35 564.972 190.35C558.072 190.35 552.622 192.45 548.622 196.65C544.622 200.75 542.622 206.7 542.622 214.5V255H523.872V174.9H541.722V185.25C544.822 181.55 548.722 178.75 553.422 176.85C558.122 174.95 563.422 174 569.322 174ZM674.708 250.65C672.508 252.45 669.808 253.8 666.608 254.7C663.508 255.6 660.208 256.05 656.708 256.05C647.908 256.05 641.108 253.75 636.308 249.15C631.508 244.55 629.108 237.85 629.108 229.05V190.5H615.908V175.5H629.108V157.2H647.858V175.5H669.308V190.5H647.858V228.6C647.858 232.5 648.808 235.5 650.708 237.6C652.608 239.6 655.358 240.6 658.958 240.6C663.158 240.6 666.658 239.5 669.458 237.3L674.708 250.65ZM762.795 215.4C762.795 216.7 762.695 218.55 762.495 220.95H699.645C700.745 226.85 703.595 231.55 708.195 235.05C712.895 238.45 718.695 240.15 725.595 240.15C734.395 240.15 741.645 237.25 747.345 231.45L757.395 243C753.795 247.3 749.245 250.55 743.745 252.75C738.245 254.95 732.045 256.05 725.145 256.05C716.345 256.05 708.595 254.3 701.895 250.8C695.195 247.3 689.995 242.45 686.295 236.25C682.695 229.95 680.895 222.85 680.895 214.95C680.895 207.15 682.645 200.15 686.145 193.95C689.745 187.65 694.695 182.75 700.995 179.25C707.295 175.75 714.395 174 722.295 174C730.095 174 737.045 175.75 743.145 179.25C749.345 182.65 754.145 187.5 757.545 193.8C761.045 200 762.795 207.2 762.795 215.4ZM722.295 189C716.295 189 711.195 190.8 706.995 194.4C702.895 197.9 700.395 202.6 699.495 208.5H744.945C744.145 202.7 741.695 198 737.595 194.4C733.495 190.8 728.395 189 722.295 189Z" fill="#4A49FF"/>
<rect x="253" y="6" width="5" height="246" fill="#4A49FF"/>
</svg>
